<svg width="1024" height="1051" viewBox="0 0 1024 1051" fill="none" xmlns="http://www.w3.org/2000/svg">
<g filter="url(#filter0_d_5_7)">
<circle cx="500.592" cy="500.181" r="467.219" fill="#252525"/>
<g filter="url(#filter1_i_5_7)">
<path d="M996.921 555.891C969.06 805.981 756.955 1000.44 499.431 1000.44C241.8 1000.44 29.6238 805.8 1.90446 555.56C0.629381 544.049 9.82903 534.225 21.4104 534.229L977.429 534.548C989.01 534.552 998.203 544.381 996.921 555.891Z" fill="#F8F8F8"/>
</g>
<path d="M499.431 990.44C751.803 990.44 959.68 799.868 986.982 554.784C987.573 549.476 983.331 544.55 977.426 544.548L21.407 544.229C15.502 544.227 11.2556 549.15 11.8437 554.459C39.0082 799.69 246.954 990.44 499.431 990.44Z" stroke="#252525" stroke-width="20"/>
<g filter="url(#filter2_i_5_7)">
<path d="M998.082 445.473C970.222 195.382 758.116 0.923706 500.592 0.923706C242.962 0.923706 30.7854 195.563 3.06608 445.804C1.791 457.315 10.9907 467.139 22.572 467.135L978.591 466.815C990.172 466.811 999.364 456.982 998.082 445.473Z" fill="#3E3E3E"/>
</g>
<path d="M500.592 10.9237C752.965 10.9237 960.841 201.496 988.144 446.58C988.735 451.888 984.492 456.813 978.587 456.815L22.5687 457.135C16.6636 457.137 12.4173 452.214 13.0053 446.905C40.1698 201.673 248.115 10.9237 500.592 10.9237Z" stroke="#252525" stroke-width="20"/>
<circle cx="500.592" cy="500.183" r="183.55" fill="#252525"/>
<circle cx="500.592" cy="500.183" r="116.805" fill="#F8F8F8"/>
<g filter="url(#filter3_d_5_7)">
<circle cx="500.592" cy="500.183" r="83.432" fill="#F8F8F8"/>
<circle cx="500.592" cy="500.183" r="73.432" stroke="#252525" stroke-width="20"/>
</g>
</g>
<defs>
<filter id="filter0_d_5_7" x="1.78613" y="0.923706" width="1021.42" height="1049.52" filterUnits="userSpaceOnUse" color-interpolation-filters="sRGB">
<feFlood flood-opacity="0" result="BackgroundImageFix"/>
<feColorMatrix in="SourceAlpha" type="matrix" values="0 0 0 0 0 0 0 0 0 0 0 0 0 0 0 0 0 0 127 0" result="hardAlpha"/>
<feOffset dx="25" dy="50"/>
<feColorMatrix type="matrix" values="0 0 0 0 0 0 0 0 0 0 0 0 0 0 0 0 0 0 0.25 0"/>
<feBlend mode="normal" in2="BackgroundImageFix" result="effect1_dropShadow_5_7"/>
<feBlend mode="normal" in="SourceGraphic" in2="effect1_dropShadow_5_7" result="shape"/>
</filter>
<filter id="filter1_i_5_7" x="1.78613" y="534.229" width="995.254" height="466.211" filterUnits="userSpaceOnUse" color-interpolation-filters="sRGB">
<feFlood flood-opacity="0" result="BackgroundImageFix"/>
<feBlend mode="normal" in="SourceGraphic" in2="BackgroundImageFix" result="shape"/>
<feColorMatrix in="SourceAlpha" type="matrix" values="0 0 0 0 0 0 0 0 0 0 0 0 0 0 0 0 0 0 127 0" result="hardAlpha"/>
<feOffset dx="-150" dy="-50"/>
<feComposite in2="hardAlpha" operator="arithmetic" k2="-1" k3="1"/>
<feColorMatrix type="matrix" values="0 0 0 0 0 0 0 0 0 0 0 0 0 0 0 0 0 0 0.25 0"/>
<feBlend mode="normal" in2="shape" result="effect1_innerShadow_5_7"/>
</filter>
<filter id="filter2_i_5_7" x="2.94775" y="0.923706" width="995.254" height="466.211" filterUnits="userSpaceOnUse" color-interpolation-filters="sRGB">
<feFlood flood-opacity="0" result="BackgroundImageFix"/>
<feBlend mode="normal" in="SourceGraphic" in2="BackgroundImageFix" result="shape"/>
<feColorMatrix in="SourceAlpha" type="matrix" values="0 0 0 0 0 0 0 0 0 0 0 0 0 0 0 0 0 0 127 0" result="hardAlpha"/>
<feOffset dx="-150" dy="-25"/>
<feComposite in2="hardAlpha" operator="arithmetic" k2="-1" k3="1"/>
<feColorMatrix type="matrix" values="0 0 0 0 0 0 0 0 0 0 0 0 0 0 0 0 0 0 0.25 0"/>
<feBlend mode="normal" in2="shape" result="effect1_innerShadow_5_7"/>
</filter>
<filter id="filter3_d_5_7" x="417.16" y="416.75" width="176.864" height="176.864" filterUnits="userSpaceOnUse" color-interpolation-filters="sRGB">
<feFlood flood-opacity="0" result="BackgroundImageFix"/>
<feColorMatrix in="SourceAlpha" type="matrix" values="0 0 0 0 0 0 0 0 0 0 0 0 0 0 0 0 0 0 127 0" result="hardAlpha"/>
<feOffset dx="10" dy="10"/>
<feColorMatrix type="matrix" values="0 0 0 0 0 0 0 0 0 0 0 0 0 0 0 0 0 0 0.25 0"/>
<feBlend mode="normal" in2="BackgroundImageFix" result="effect1_dropShadow_5_7"/>
<feBlend mode="normal" in="SourceGraphic" in2="effect1_dropShadow_5_7" result="shape"/>
</filter>
</defs>
</svg>
