<svg width="48" height="77" viewBox="0 0 48 77" fill="none" xmlns="http://www.w3.org/2000/svg">
<g filter="url(#filter0_d_1_5276)">
<path d="M23.5592 2.00932C20.6286 2.00291 17.753 2.80465 15.2484 4.32638C12.7439 5.8481 10.7074 8.03087 9.36278 10.6348H5.04065C4.90475 10.6346 4.77015 10.6612 4.64456 10.7131C4.51897 10.765 4.40488 10.8413 4.30879 10.9373C4.2127 11.0334 4.13649 11.1475 4.08458 11.2731C4.03267 11.3987 4.00605 11.5333 4.00626 11.6692V22.3102C4.00605 22.4461 4.03267 22.5807 4.08458 22.7063C4.13649 22.8319 4.2127 22.9461 4.30879 23.0421C4.40488 23.1382 4.51897 23.2144 4.64456 23.2663C4.77015 23.3182 4.90475 23.3448 5.04065 23.3446H8.7165L9.43322 26.7138V44.1792L8.03579 50.7516H5.03439C4.8985 50.7514 4.76389 50.778 4.6383 50.8299C4.51272 50.8818 4.39863 50.958 4.30253 51.0541C4.20644 51.1502 4.13023 51.2643 4.07832 51.3899C4.02641 51.5155 3.9998 51.6501 4 51.7859V62.427C3.9998 62.5629 4.02641 62.6975 4.07832 62.8231C4.13023 62.9487 4.20644 63.0628 4.30253 63.1589C4.39863 63.255 4.51272 63.3312 4.6383 63.3831C4.76389 63.435 4.8985 63.4616 5.03439 63.4614H9.19377C9.22663 63.5114 9.25327 63.5631 9.28613 63.6179C9.4228 63.8265 9.57035 64.0284 9.72892 64.2234C9.80821 64.3278 9.89124 64.4243 9.97783 64.513C10.0644 64.6017 10.1557 64.6924 10.2517 64.7852C10.2955 64.8259 10.3424 64.8651 10.3878 64.9042C10.9001 65.3349 11.4693 65.6929 12.0794 65.9683C12.1654 66.009 12.2437 66.0528 12.3313 66.0919C14.7496 66.9859 17.3022 67.4622 19.8802 67.5003C20.5327 67.5332 21.1743 67.5519 21.7909 67.5629C22.4074 67.5738 22.999 67.577 23.5513 67.577C24.6577 67.577 25.9425 67.577 27.2789 67.5332C27.9471 67.5097 28.6293 67.4721 29.3132 67.4158C29.9923 67.3594 30.6683 67.2828 31.3271 67.1795C31.6573 67.1278 31.9828 67.0699 32.3005 67.0042C32.6182 66.9385 32.9265 66.865 33.2395 66.7836C33.8237 66.6304 34.3946 66.4306 34.9467 66.1858C35.0782 66.1264 35.2064 66.0643 35.3316 65.9996C35.6945 65.8149 36.0387 65.5959 36.3597 65.3455C36.464 65.2641 36.5627 65.1796 36.6555 65.092C36.7494 65.0043 36.8401 64.9151 36.9262 64.8213C37.0965 64.6359 37.2495 64.4353 37.3831 64.2219C37.5396 63.97 37.6837 63.718 37.8198 63.4645H42.3015C42.4374 63.4647 42.572 63.4381 42.6976 63.3862C42.8232 63.3343 42.9373 63.2581 43.0334 63.162C43.1295 63.0659 43.2057 62.9518 43.2576 62.8262C43.3095 62.7006 43.3361 62.566 43.3359 62.4301V51.7891C43.3361 51.6532 43.3095 51.5186 43.2576 51.393C43.2057 51.2674 43.1295 51.1533 43.0334 51.0572C42.9373 50.9611 42.8232 50.8849 42.6976 50.833C42.572 50.7811 42.4374 50.7545 42.3015 50.7547H39.0748L37.6774 44.1823V26.7169L38.3941 23.3478H42.3063C42.4422 23.348 42.5768 23.3214 42.7024 23.2695C42.8279 23.2176 42.942 23.1413 43.0381 23.0452C43.1342 22.9492 43.2103 22.8351 43.2622 22.7095C43.3142 22.5839 43.3408 22.4493 43.3406 22.3134V11.6724C43.3408 11.5365 43.3142 11.4019 43.2622 11.2763C43.2103 11.1507 43.1342 11.0365 43.0381 10.9405C42.942 10.8444 42.8279 10.7682 42.7024 10.7163C42.5768 10.6644 42.4422 10.6378 42.3063 10.638H37.7603C37.7134 10.5456 37.6679 10.4533 37.6194 10.3626C36.2485 7.8313 34.2178 5.71845 31.7428 4.2483C29.2678 2.77814 26.441 2.00553 23.5623 2.01247L23.5592 2.00932Z" fill="#1A1A1A"/>
<path d="M42.3125 50.7485H5.04853C4.47726 50.7485 4.01416 51.2116 4.01416 51.7829V62.4302C4.01416 63.0015 4.47726 63.4646 5.04853 63.4646H42.3125C42.8838 63.4646 43.3469 63.0015 43.3469 62.4302V51.7829C43.3469 51.2116 42.8838 50.7485 42.3125 50.7485Z" fill="#1A1A1A"/>
<path d="M42.3125 10.6272H5.04853C4.47726 10.6272 4.01416 11.0903 4.01416 11.6616V22.3089C4.01416 22.8801 4.47726 23.3433 5.04853 23.3433H42.3125C42.8838 23.3433 43.3469 22.8801 43.3469 22.3089V11.6616C43.3469 11.0903 42.8838 10.6272 42.3125 10.6272Z" fill="#1A1A1A"/>
<path d="M23.5687 2.00004C25.6686 1.9953 27.7487 2.4054 29.6897 3.2068C31.6307 4.00821 33.3943 5.18514 34.8791 6.67C36.364 8.15486 37.5409 9.9184 38.3423 11.8594C39.1437 13.8003 39.5538 15.8805 39.5491 17.9804L37.6916 26.7139V44.1809L39.5491 52.9143C39.5491 57.3413 39.5585 60.7605 37.3942 64.2236C35.2613 67.6381 27.9957 67.5802 23.5703 67.5802C19.1449 67.5802 12.2719 67.4081 9.74625 64.2236C7.22056 61.0391 7.59151 57.3382 7.59151 52.9143L9.44892 44.1809V26.7139L7.59151 17.9804C7.58676 15.8805 7.9968 13.8003 8.7982 11.8594C9.59961 9.9184 10.7766 8.15486 12.2614 6.67C13.7463 5.18514 15.5098 4.00821 17.4508 3.2068C19.3917 2.4054 21.4719 1.9953 23.5718 2.00004H23.5687Z" fill="#FF2A2A" stroke="white" stroke-width="2.381"/>
<path d="M23.5687 2.00004C25.6686 1.9953 27.7487 2.4054 29.6897 3.2068C31.6307 4.00821 33.3943 5.18514 34.8791 6.67C36.364 8.15486 37.5409 9.9184 38.3423 11.8594C39.1437 13.8003 39.5538 15.8805 39.5491 17.9804L37.6916 26.7139V44.1809L39.5491 52.9143C39.5491 57.3413 39.5585 60.7605 37.3942 64.2236C35.2613 67.6381 27.9957 67.5802 23.5703 67.5802C19.1449 67.5802 12.2719 67.4081 9.74625 64.2236C7.22056 61.0391 7.59151 57.3382 7.59151 52.9143L9.44892 44.1809V26.7139L7.59151 17.9804C7.58676 15.8805 7.9968 13.8003 8.7982 11.8594C9.59961 9.9184 10.7766 8.15486 12.2614 6.67C13.7463 5.18514 15.5098 4.00821 17.4508 3.2068C19.3917 2.4054 21.4719 1.9953 23.5718 2.00004H23.5687Z" fill="#FF2A2A"/>
<path d="M17.7238 4.61816C16.2634 4.97507 14.9241 5.71384 13.8432 6.75874C12.7623 7.80365 11.9786 9.11714 11.5724 10.5646C12.942 10.0329 14.1917 9.23303 15.248 8.2119C16.3043 7.19077 17.146 5.96897 17.7238 4.61816Z" fill="#FFDD55"/>
<path d="M29.418 4.61816C30.8773 4.97606 32.2153 5.71526 33.2951 6.7601C34.3748 7.80495 35.1576 9.11791 35.5633 10.5646C34.1934 10.0331 32.9434 9.2333 31.8868 8.21217C30.8302 7.19103 29.9882 5.96912 29.4102 4.61816H29.418Z" fill="#FFDD55"/>
<path d="M9.44737 30.6511V44.1793L7.58986 52.9128C7.58986 57.3398 7.20493 61.0235 9.74469 64.2221C12.2845 67.4207 19.1432 67.5787 23.5686 67.5787C27.9941 67.5787 35.2613 67.6366 37.3942 64.2221C39.5584 60.7575 39.5491 57.3367 39.5491 52.9128L37.6915 44.1793V30.6511H9.44737Z" fill="#BCD35F" stroke="white" stroke-width="0.044"/>
<path d="M23.5577 30.6511V67.5818H23.5671C27.9941 67.5818 35.2597 67.6397 37.3926 64.2252C39.5568 60.7606 39.5474 57.3398 39.5474 52.916L37.69 44.1825V30.6543L23.5577 30.6511Z" fill="#55DDFF"/>
<path d="M26.0224 23.4746H21.115C15.697 23.4746 11.3049 27.8667 11.3049 33.2847V53.3415C11.3049 58.7595 15.697 63.1516 21.115 63.1516H26.0224C31.4404 63.1516 35.8325 58.7595 35.8325 53.3415V33.2847C35.8325 27.8667 31.4404 23.4746 26.0224 23.4746Z" fill="#162D50"/>
<path d="M20.3904 33.6697C14.5863 33.6697 9.90588 39.1185 9.90588 45.8865C9.90588 52.6546 14.5785 58.1034 20.3904 58.1034H26.8439C32.648 58.1034 37.3206 52.6546 37.3206 45.8865C37.3206 39.1185 32.648 33.6697 26.8439 33.6697H20.3904Z" fill="#BCD35F"/>
<path d="M23.5592 33.6697V58.1034H26.8454C32.6495 58.1034 37.3222 52.6546 37.3222 45.8865C37.3222 39.1185 32.6495 33.6697 26.8454 33.6697H23.5592Z" fill="#55DDFF"/>
<path d="M13.4112 45.7854H15.899V46.2249H13.897V47.3137H15.6573V47.741H13.897V49.3718H13.4112V45.7854ZM16.9488 45.7854V48.0022C16.9488 48.2626 16.9976 48.4791 17.0952 48.6516C17.2401 48.912 17.4842 49.0422 17.8277 49.0422C18.2395 49.0422 18.5194 48.9014 18.6675 48.6199C18.7473 48.4669 18.7871 48.261 18.7871 48.0022V45.7854H19.2803V47.7996C19.2803 48.2406 19.2209 48.58 19.1021 48.8176C18.884 49.2506 18.4722 49.467 17.8667 49.467C17.2613 49.467 16.8503 49.2506 16.6338 48.8176C16.515 48.58 16.4556 48.2406 16.4556 47.7996V45.7854H16.9488ZM20.0811 45.7854H22.6958V46.2249H20.5547V47.3137H22.5347V47.7288H20.5547V48.9446H22.7325V49.3718H20.0811V45.7854ZM23.3697 45.7854H23.8555V48.9446H25.6719V49.3718H23.3697V45.7854Z" fill="white"/>
</g>
<defs>
<filter id="filter0_d_1_5276" x="0" y="0.80957" width="47.3469" height="75.9612" filterUnits="userSpaceOnUse" color-interpolation-filters="sRGB">
<feFlood flood-opacity="0" result="BackgroundImageFix"/>
<feColorMatrix in="SourceAlpha" type="matrix" values="0 0 0 0 0 0 0 0 0 0 0 0 0 0 0 0 0 0 127 0" result="hardAlpha"/>
<feOffset dy="4"/>
<feGaussianBlur stdDeviation="2"/>
<feComposite in2="hardAlpha" operator="out"/>
<feColorMatrix type="matrix" values="0 0 0 0 0 0 0 0 0 0 0 0 0 0 0 0 0 0 0.25 0"/>
<feBlend mode="normal" in2="BackgroundImageFix" result="effect1_dropShadow_1_5276"/>
<feBlend mode="normal" in="SourceGraphic" in2="effect1_dropShadow_1_5276" result="shape"/>
</filter>
</defs>
</svg>
