<svg width="48" height="82" viewBox="0 0 48 82" fill="none" xmlns="http://www.w3.org/2000/svg">
<g filter="url(#filter0_d_302_27)">
<path d="M42.6231 52.8596H5.35908C4.78781 52.8596 4.32471 53.3227 4.32471 53.894V64.5413C4.32471 65.1126 4.78781 65.5757 5.35908 65.5757H42.6231C43.1944 65.5757 43.6575 65.1126 43.6575 64.5413V53.894C43.6575 53.3227 43.1944 52.8596 42.6231 52.8596Z" fill="#1A1A1A"/>
<path d="M42.6231 12.738H5.35908C4.78781 12.738 4.32471 13.2011 4.32471 13.7724V24.4197C4.32471 24.991 4.78781 25.4541 5.35908 25.4541H42.6231C43.1944 25.4541 43.6575 24.991 43.6575 24.4197V13.7724C43.6575 13.2011 43.1944 12.738 42.6231 12.738Z" fill="#1A1A1A"/>
<path d="M23.8807 4.62365e-05C26.244 -0.0053184 28.5851 0.456197 30.7695 1.35812C32.954 2.26005 34.9389 3.58461 36.61 5.25573C38.2811 6.92686 39.6056 8.91164 40.5075 11.0961C41.4094 13.2805 41.8711 15.6217 41.8657 17.985V57.3021C41.8657 62.283 41.8766 66.131 39.4401 70.0307C37.0396 73.8724 28.8632 73.8082 23.8807 73.8082C18.8982 73.8082 11.1662 73.6142 8.32128 70.0307C5.47637 66.4471 5.89577 62.2846 5.89577 57.3021V17.9881C5.8904 15.6248 6.35192 13.2837 7.25385 11.0992C8.15578 8.91477 9.48036 6.93001 11.1515 5.25888C12.8226 3.58776 14.8074 2.2632 16.9918 1.36128C19.1763 0.459348 21.5174 -0.0021904 23.8807 0.00317424V4.62365e-05Z" fill="#E44545"/>
<path d="M17.3005 2.94348C15.6563 3.34544 14.1485 4.17738 12.9317 5.35402C11.7149 6.53067 10.8328 8.0097 10.3759 9.63953C11.9178 9.041 13.3246 8.14051 14.5137 6.99092C15.7028 5.84133 16.6502 4.4658 17.3005 2.94506V2.94348Z" fill="#FFDD55"/>
<path d="M30.4608 2.94348C32.105 3.34544 33.6128 4.17738 34.8295 5.35402C36.0463 6.53067 36.9284 8.0097 37.3852 9.63953C35.8433 9.04082 34.4365 8.1401 33.2474 6.99023C32.0583 5.84036 31.1108 4.46451 30.4608 2.94348Z" fill="#FFDD55"/>
<path d="M23.1407 0.017323C22.8705 0.0287987 22.6019 0.0459957 22.3348 0.068947H22.3191C22.0489 0.0929415 21.7809 0.122152 21.5148 0.156579V73.7739C22.0813 73.7864 22.6102 73.7942 23.1423 73.7958V0.0157471L23.1407 0.017323ZM24.6211 0.017323V73.8021C25.1453 73.8021 25.6773 73.802 26.2485 73.7911V0.158155C25.9825 0.123728 25.7144 0.0945174 25.4442 0.0705229H25.427C25.1599 0.0475716 24.8913 0.0303507 24.6211 0.0188751V0.017323Z" fill="white"/>
<path d="M26.6412 24.1678H21.1203C15.0222 24.1678 10.0787 29.1114 10.0787 35.2095V57.7795C10.0787 63.8776 15.0222 68.8211 21.1203 68.8211H26.6412C32.7393 68.8211 37.6828 63.8776 37.6828 57.7795V35.2095C37.6828 29.1114 32.7393 24.1678 26.6412 24.1678Z" fill="#162D50"/>
<path d="M28.1154 35.6415H19.6448C12.0515 35.6415 5.89594 41.7971 5.89594 49.3903V49.3919C5.89594 56.9852 12.0515 63.1408 19.6448 63.1408H28.1154C35.7087 63.1408 41.8642 56.9852 41.8642 49.3919V49.3903C41.8642 41.7971 35.7087 35.6415 28.1154 35.6415Z" fill="#E44545"/>
<path d="M21.5148 35.6415V63.1408H23.1423V35.6415H21.5148ZM24.6195 35.6415V63.1408H26.2469V35.6415H24.6195Z" fill="white"/>
</g>
<defs>
<filter id="filter0_d_302_27" x="0.324707" y="0" width="47.3328" height="81.8083" filterUnits="userSpaceOnUse" color-interpolation-filters="sRGB">
<feFlood flood-opacity="0" result="BackgroundImageFix"/>
<feColorMatrix in="SourceAlpha" type="matrix" values="0 0 0 0 0 0 0 0 0 0 0 0 0 0 0 0 0 0 127 0" result="hardAlpha"/>
<feOffset dy="4"/>
<feGaussianBlur stdDeviation="2"/>
<feComposite in2="hardAlpha" operator="out"/>
<feColorMatrix type="matrix" values="0 0 0 0 0 0 0 0 0 0 0 0 0 0 0 0 0 0 0.25 0"/>
<feBlend mode="normal" in2="BackgroundImageFix" result="effect1_dropShadow_302_27"/>
<feBlend mode="normal" in="SourceGraphic" in2="effect1_dropShadow_302_27" result="shape"/>
</filter>
</defs>
</svg>
