<svg width="30" height="34" viewBox="0 0 30 34" fill="none" xmlns="http://www.w3.org/2000/svg">
<mask id="path-1-inside-1_313_531" fill="white">
<ellipse cx="15" cy="17" rx="15" ry="17"/>
</mask>
<path d="M7 17C7 16.232 7.27444 15.0342 8.36033 13.8035C9.48483 12.5291 11.7861 11 15 11V57C38.6077 57 53 36.3016 53 17H7ZM15 11C18.2139 11 20.5152 12.5291 21.6397 13.8035C22.7256 15.0342 23 16.232 23 17H-23C-23 36.3016 -8.60766 57 15 57V11ZM23 17C23 17.768 22.7256 18.9658 21.6397 20.1965C20.5152 21.4709 18.2139 23 15 23V-23C-8.60766 -23 -23 -2.30163 -23 17H23ZM15 23C11.7861 23 9.48483 21.4709 8.36033 20.1965C7.27444 18.9658 7 17.768 7 17H53C53 -2.30163 38.6077 -23 15 -23V23Z" fill="#FF0000" mask="url(#path-1-inside-1_313_531)"/>
</svg>
