<svg width="40" height="76" viewBox="0 0 40 76" fill="none" xmlns="http://www.w3.org/2000/svg">
<path d="M38.2983 55.8186H1.03431C0.463043 55.8186 -6.10352e-05 56.2817 -6.10352e-05 56.853V67.5003C-6.10352e-05 68.0716 0.463043 68.5347 1.03431 68.5347H38.2983C38.8696 68.5347 39.3327 68.0716 39.3327 67.5003V56.853C39.3327 56.2817 38.8696 55.8186 38.2983 55.8186Z" fill="#1A1A1A"/>
<path d="M38.2983 12.7395H1.03431C0.463043 12.7395 -6.10352e-05 13.2026 -6.10352e-05 13.7739V24.4212C-6.10352e-05 24.9925 0.463043 25.4556 1.03431 25.4556H38.2983C38.8696 25.4556 39.3327 24.9925 39.3327 24.4212V13.7739C39.3327 13.2026 38.8696 12.7395 38.2983 12.7395Z" fill="#1A1A1A"/>
<path d="M25.1192 0H13.9946C7.13421 0 1.57275 5.56146 1.57275 12.4219V62.862C1.57275 69.7224 7.13421 75.2839 13.9946 75.2839H25.1192C31.9796 75.2839 37.5411 69.7224 37.5411 62.862V12.4219C37.5411 5.56146 31.9796 0 25.1192 0Z" fill="#333333"/>
<path d="M27.9359 20.1758H11.1763C8.18165 20.1758 5.75403 22.6034 5.75403 25.598V59.4068C5.75403 62.4015 8.18165 64.8291 11.1763 64.8291H27.9359C30.9305 64.8291 33.3582 62.4015 33.3582 59.4068V25.598C33.3582 22.6034 30.9305 20.1758 27.9359 20.1758Z" fill="#5FBCD3"/>
<path d="M11.0245 0.356689C8.89018 0.878358 6.93305 1.95814 5.35356 3.48538C3.77407 5.01263 2.6291 6.9324 2.03596 9.04792C4.03757 8.27096 5.86378 7.10189 7.40734 5.60939C8.9509 4.11689 10.1806 2.33104 11.0245 0.356689V0.356689Z" fill="#FFDD55"/>
<path d="M28.1081 0.356689C30.2424 0.878358 32.1995 1.95814 33.779 3.48538C35.3585 5.01263 36.5034 6.9324 37.0966 9.04792C35.095 8.27096 33.2688 7.10189 31.7252 5.60939C30.1817 4.11689 28.9519 2.33104 28.1081 0.356689V0.356689Z" fill="#FFDD55"/>
<path d="M1.57275 26.7654V61.4693H6.18596L6.26418 59.9044H32.8668L32.9451 61.4693H37.5442V26.7654H33.3519L33.3363 29.3787H5.77908L5.76342 26.7654H1.57275Z" fill="white"/>
<path d="M28.5087 36.2468H10.6067C9.31029 36.2468 8.25937 37.2974 8.25937 38.5933C8.25937 39.8893 9.31029 40.9398 10.6067 40.9398H28.5087C29.805 40.9398 30.8559 39.8893 30.8559 38.5933C30.8559 37.2974 29.805 36.2468 28.5087 36.2468Z" fill="#FF5555"/>
<path d="M20.6172 36.2468V40.9414H28.5072C29.1298 40.9414 29.7268 40.6941 30.167 40.2539C30.6072 39.8137 30.8545 39.2167 30.8545 38.5941C30.8545 37.9716 30.6072 37.3745 30.167 36.9343C29.7268 36.4941 29.1298 36.2468 28.5072 36.2468H20.6172Z" fill="#00FFFF"/>
<path d="M18.4967 36.2468V40.9414H20.6172V36.2468H18.4967Z" fill="#983E66"/>
<path d="M11.5162 66.3766H12.7062C12.9415 66.3766 13.1311 66.4432 13.2751 66.5764C13.4191 66.7085 13.4911 66.8945 13.4911 67.1345C13.4911 67.341 13.4269 67.521 13.2985 67.6746C13.1701 67.827 12.9727 67.9033 12.7062 67.9033H11.8745V69.0212H11.5162V66.3766ZM13.1293 67.1363C13.1293 66.9419 13.0573 66.8099 12.9133 66.7403C12.834 66.7031 12.7254 66.6845 12.5874 66.6845H11.8745V67.6008H12.5874C12.7482 67.6008 12.8784 67.5666 12.9781 67.4982C13.0789 67.4298 13.1293 67.3092 13.1293 67.1363ZM14.6631 68.8124C14.878 68.8124 15.025 68.7314 15.1042 68.5694C15.1846 68.4061 15.2248 68.2249 15.2248 68.0257C15.2248 67.8456 15.196 67.6992 15.1384 67.5864C15.0472 67.4088 14.89 67.32 14.6667 67.32C14.4687 67.32 14.3247 67.3956 14.2347 67.5468C14.1447 67.698 14.0996 67.8805 14.0996 68.0941C14.0996 68.2993 14.1447 68.4704 14.2347 68.6072C14.3247 68.744 14.4675 68.8124 14.6631 68.8124ZM14.6757 67.0373C14.9242 67.0373 15.1342 67.1201 15.3058 67.2858C15.4775 67.4514 15.5633 67.695 15.5633 68.0167C15.5633 68.3275 15.4877 68.5844 15.3364 68.7872C15.1852 68.99 14.9506 69.0915 14.6325 69.0915C14.3673 69.0915 14.1567 69.002 14.0006 68.8232C13.8446 68.6432 13.7666 68.4019 13.7666 68.0995C13.7666 67.7754 13.8488 67.5174 14.0132 67.3254C14.1777 67.1333 14.3985 67.0373 14.6757 67.0373ZM15.9593 66.3766H16.2834V69.0212H15.9593V66.3766ZM16.7713 67.1021H17.1007V69.0212H16.7713V67.1021ZM16.7713 66.3766H17.1007V66.7439H16.7713V66.3766ZM18.3357 67.0373C18.553 67.0373 18.7294 67.0901 18.865 67.1957C19.0018 67.3014 19.0841 67.4832 19.1117 67.7412H18.7966C18.7774 67.6224 18.7336 67.524 18.6652 67.446C18.5968 67.3668 18.487 67.3272 18.3357 67.3272C18.1293 67.3272 17.9817 67.428 17.8929 67.6296C17.8353 67.7604 17.8064 67.9219 17.8064 68.1139C17.8064 68.3071 17.8473 68.4698 17.9289 68.6018C18.0105 68.7338 18.1389 68.7998 18.3141 68.7998C18.4486 68.7998 18.5548 68.759 18.6328 68.6774C18.712 68.5946 18.7666 68.4818 18.7966 68.3389H19.1117C19.0757 68.5946 18.9856 68.7818 18.8416 68.9006C18.6976 69.0182 18.5134 69.077 18.2889 69.077C18.0369 69.077 17.8359 68.9852 17.6858 68.8016C17.5358 68.6168 17.4608 68.3863 17.4608 68.1103C17.4608 67.7718 17.543 67.5084 17.7074 67.32C17.8719 67.1315 18.0813 67.0373 18.3357 67.0373ZM20.2386 67.0499C20.3755 67.0499 20.5081 67.0823 20.6365 67.1471C20.7649 67.2107 20.8627 67.2936 20.93 67.3956C20.9948 67.4928 21.038 67.6062 21.0596 67.7358C21.0788 67.8246 21.0884 67.9663 21.0884 68.1607H19.6752C19.6812 68.3563 19.7274 68.5136 19.8138 68.6324C19.9002 68.75 20.034 68.8088 20.2152 68.8088C20.3845 68.8088 20.5195 68.753 20.6203 68.6414C20.6779 68.5766 20.7187 68.5016 20.7427 68.4163H21.0614C21.053 68.4872 21.0248 68.5664 20.9768 68.654C20.93 68.7404 20.8771 68.8112 20.8183 68.8664C20.7199 68.9624 20.5981 69.0272 20.4529 69.0608C20.3749 69.08 20.2867 69.0897 20.1882 69.0897C19.9482 69.0897 19.7448 69.0026 19.5779 68.8286C19.4111 68.6534 19.3277 68.4085 19.3277 68.0941C19.3277 67.7844 19.4117 67.533 19.5797 67.3398C19.7478 67.1465 19.9674 67.0499 20.2386 67.0499ZM20.7553 67.9033C20.7421 67.7628 20.7115 67.6506 20.6635 67.5666C20.5747 67.4106 20.4265 67.3326 20.2188 67.3326C20.07 67.3326 19.9452 67.3866 19.8444 67.4946C19.7436 67.6014 19.6902 67.7376 19.6842 67.9033H20.7553Z" fill="white"/>
</svg>
