<svg width="19" height="77" viewBox="0 0 19 77" fill="none" xmlns="http://www.w3.org/2000/svg">
<path d="M0.438626 5.33094C0.391435 5.33073 0.344652 5.33986 0.300994 5.35777C0.257336 5.37569 0.217626 5.40208 0.184183 5.43538C0.150741 5.46867 0.124257 5.50823 0.106151 5.55181C0.0880439 5.59539 0.0787383 5.6421 0.0787388 5.6893V9.85025C0.0785317 9.89758 0.0876588 9.94451 0.105673 9.98827C0.123687 10.032 0.150243 10.0718 0.183706 10.1052C0.217169 10.1387 0.256851 10.1652 0.300612 10.1832C0.344373 10.2012 0.391303 10.2104 0.438626 10.2102H18.3954C18.4425 10.2102 18.4893 10.2009 18.5329 10.1828C18.5765 10.1647 18.616 10.1381 18.6493 10.1047C18.6826 10.0713 18.709 10.0315 18.7269 9.98788C18.7448 9.94423 18.7539 9.89744 18.7537 9.85025V5.6893C18.7537 5.64224 18.7445 5.59567 18.7265 5.55219C18.7085 5.50871 18.682 5.46918 18.6487 5.4359C18.6155 5.40263 18.576 5.37621 18.5325 5.3582C18.489 5.3402 18.4424 5.33094 18.3954 5.33094H0.438626ZM0.438626 66.5483C0.391361 66.5483 0.344566 66.5576 0.300899 66.5757C0.257231 66.5938 0.217509 66.6203 0.184088 66.6537C0.150667 66.6871 0.124238 66.7268 0.106151 66.7705C0.088063 66.8141 0.0787388 66.8609 0.0787388 66.9082V71.0692C0.0787388 71.1164 0.088063 71.1632 0.106151 71.2069C0.124238 71.2505 0.150667 71.2902 0.184088 71.3236C0.217509 71.3571 0.257231 71.3836 0.300899 71.4017C0.344566 71.4198 0.391361 71.4291 0.438626 71.4291H18.3954C18.4425 71.4291 18.4893 71.4198 18.5329 71.4017C18.5765 71.3836 18.616 71.357 18.6493 71.3235C18.6826 71.2901 18.709 71.2504 18.7269 71.2068C18.7448 71.1631 18.7539 71.1163 18.7537 71.0692V66.9082C18.7539 66.861 18.7448 66.8142 18.7269 66.7706C18.709 66.7269 18.6826 66.6872 18.6493 66.6538C18.616 66.6204 18.5765 66.5938 18.5329 66.5757C18.4893 66.5576 18.4425 66.5483 18.3954 66.5483H0.438626Z" fill="white"/>
<path d="M13.2472 0.730103H5.60594C5.14357 0.730103 4.76874 1.10493 4.76874 1.5673V75.1768C4.76874 75.6391 5.14357 76.014 5.60594 76.014H13.2472C13.7095 76.014 14.0844 75.6391 14.0844 75.1768V1.5673C14.0844 1.10493 13.7095 0.730103 13.2472 0.730103Z" fill="white"/>
<path d="M14.0764 3.37646L4.76074 5.88025V15.5245L14.0764 13.0207V3.37646ZM14.0764 22.6649L4.76074 25.1609V34.8051L14.0764 32.3014V22.6649ZM14.0764 41.9534L4.76074 44.4572V54.1014L14.0764 51.5976V41.9534ZM14.0764 61.2419L4.76074 63.7456V73.3899L14.0764 70.8861V61.2419Z" fill="#FF5555"/>
</svg>
