<svg width="44" height="94" viewBox="0 0 44 94" fill="none" xmlns="http://www.w3.org/2000/svg">
<path d="M42.2606 72.1135H1.14228C0.511378 72.1135 -6.81877e-05 72.625 -6.81877e-05 73.2559V85.0033C-6.81877e-05 85.6342 0.511378 86.1456 1.14228 86.1456H42.2606C42.8915 86.1456 43.4029 85.6342 43.4029 85.0033V73.2559C43.4029 72.625 42.8915 72.1135 42.2606 72.1135Z" fill="#1A1A1A"/>
<path d="M42.2606 12.2295H1.14228C0.511378 12.2295 -6.81877e-05 12.7409 -6.81877e-05 13.3718V25.1192C-6.81877e-05 25.7501 0.511378 26.2616 1.14228 26.2616H42.2606C42.8915 26.2616 43.4029 25.7501 43.4029 25.1192V13.3718C43.4029 12.7409 42.8915 12.2295 42.2606 12.2295Z" fill="#1A1A1A"/>
<path d="M28.2379 29.3303H15.165C14.5281 29.3303 14.0117 29.8467 14.0117 30.4836V39.3955C14.0117 40.0325 14.5281 40.5488 15.165 40.5488H28.2379C28.8748 40.5488 29.3912 40.0325 29.3912 39.3955V30.4836C29.3912 29.8467 28.8748 29.3303 28.2379 29.3303Z" fill="#50224C"/>
<path d="M29.2065 0H14.1948C7.52624 0 2.12032 5.40592 2.12032 12.0745V22.5183C2.12032 29.1869 7.52624 34.5928 14.1948 34.5928H29.2065C35.875 34.5928 41.281 29.1869 41.281 22.5183V12.0745C41.281 5.40592 35.875 0 29.2065 0Z" fill="#40BF76"/>
<path d="M36.7116 36.2234H6.68971C4.16611 36.2234 2.12032 38.2692 2.12032 40.7928V89.0906C2.12032 91.6142 4.16611 93.66 6.68971 93.66H36.7116C39.2352 93.66 41.281 91.6142 41.281 89.0906V40.7928C41.281 38.2692 39.2352 36.2234 36.7116 36.2234Z" fill="#EC8A4C"/>
<path d="M35.3799 50.2634H8.02455C7.49995 50.2634 7.07468 50.6887 7.07468 51.2133C7.07468 51.7379 7.49995 52.1632 8.02455 52.1632H35.3799C35.9045 52.1632 36.3297 51.7379 36.3297 51.2133C36.3297 50.6887 35.9045 50.2634 35.3799 50.2634Z" fill="#BB652F"/>
<path d="M35.3799 63.937H8.02455C7.49995 63.937 7.07468 64.3623 7.07468 64.8869C7.07468 65.4115 7.49995 65.8368 8.02455 65.8368H35.3799C35.9045 65.8368 36.3297 65.4115 36.3297 64.8869C36.3297 64.3623 35.9045 63.937 35.3799 63.937Z" fill="#BB652F"/>
<path d="M35.3799 77.6091H8.02455C7.49995 77.6091 7.07468 78.0344 7.07468 78.559C7.07468 79.0836 7.49995 79.5089 8.02455 79.5089H35.3799C35.9045 79.5089 36.3297 79.0836 36.3297 78.559C36.3297 78.0344 35.9045 77.6091 35.3799 77.6091Z" fill="#BB652F"/>
<path d="M21.7014 8.48462C14.4811 8.48462 8.08716 11.1214 5.84315 15.0116C5.84315 15.0116 16.4106 14.6032 21.6967 14.6032C26.9828 14.6032 37.5503 15.0116 37.5503 15.0116C35.3157 11.123 28.917 8.48931 21.7014 8.48462Z" fill="#50224C"/>
<path d="M13.2403 2.10767C11.7352 2.42556 10.3454 3.14828 9.22087 4.19784C8.09631 5.2474 7.27964 6.58401 6.85878 8.06357C8.37887 7.78077 9.7867 7.0702 10.9171 6.01523C12.0474 4.96027 12.8534 3.60466 13.2403 2.10767Z" fill="#FFDD55"/>
<path d="M30.1642 2.10767C31.6693 2.42556 33.059 3.14828 34.1835 4.19784C35.3081 5.2474 36.1248 6.58401 36.5456 8.06357C35.0255 7.78077 33.6177 7.0702 32.4873 6.01523C31.357 4.96027 30.5511 3.60466 30.1642 2.10767Z" fill="#FFDD55"/>
</svg>
